<svg width="3787" height="1000" viewBox="0 0 3787 1000" fill="none" xmlns="http://www.w3.org/2000/svg">
<path d="M257.778 155.556H742.222V844.445H671.111V528.889H670.413C662.554 441.677 589.258 373.333 500 373.333C410.741 373.333 337.445 441.677 329.586 528.889H328.889V844.445H257.778V155.556Z" fill="#855DCD"/>
<path d="M128.889 253.333L157.778 351.111H182.222V746.667C169.949 746.667 160 756.616 160 768.889V795.556H155.555C143.282 795.556 133.333 805.505 133.333 817.778V844.445H382.222V817.778C382.222 805.505 372.273 795.556 360 795.556H355.555V768.889C355.555 756.616 345.606 746.667 333.333 746.667H306.666V253.333H128.889Z" fill="#855DCD"/>
<path d="M675.555 746.667C663.282 746.667 653.333 756.616 653.333 768.889V795.556H648.889C636.616 795.556 626.666 805.505 626.666 817.778V844.445H875.555V817.778C875.555 805.505 865.606 795.556 853.333 795.556H848.889V768.889C848.889 756.616 838.939 746.667 826.666 746.667V351.111H851.111L880 253.333H702.222V746.667H675.555Z" fill="#855DCD"/>
<path d="M3366.62 707.49V396.581H3437.67V448.399H3440.91C3446.57 430.452 3456.29 416.62 3470.05 406.904C3483.95 397.054 3499.81 392.128 3517.62 392.128C3521.67 392.128 3526.19 392.331 3531.18 392.735C3536.31 393.005 3540.56 393.478 3543.93 394.152V461.556C3540.83 460.477 3535.91 459.532 3529.16 458.723C3522.55 457.778 3516.14 457.306 3509.93 457.306C3496.57 457.306 3484.56 460.207 3473.9 466.01C3463.37 471.677 3455.07 479.571 3449 489.692C3442.93 499.813 3439.89 511.485 3439.89 524.71V707.49H3366.62Z" fill="#855DCD"/>
<path d="M3166.38 713.563C3135.21 713.563 3108.29 707.086 3085.62 694.131C3063.08 681.042 3045.74 662.555 3033.6 638.67C3021.45 614.65 3015.38 586.379 3015.38 553.858C3015.38 521.876 3021.45 493.808 3033.6 469.653C3045.88 445.363 3063.01 426.471 3085.01 412.977C3107.01 399.348 3132.85 392.533 3162.53 392.533C3181.7 392.533 3199.78 395.637 3216.78 401.844C3233.92 407.917 3249.03 417.363 3262.12 430.182C3275.35 443.002 3285.74 459.33 3293.29 479.167C3300.85 498.868 3304.63 522.349 3304.63 549.607V572.075H3049.79V522.686H3234.39C3234.26 508.652 3231.22 496.17 3225.28 485.239C3219.35 474.174 3211.05 465.47 3200.39 459.128C3189.86 452.785 3177.58 449.614 3163.55 449.614C3148.57 449.614 3135.41 453.258 3124.08 460.545C3112.74 467.697 3103.9 477.143 3097.56 488.883C3091.35 500.488 3088.18 513.24 3088.05 527.139V570.253C3088.05 588.336 3091.35 603.854 3097.96 616.809C3104.58 629.628 3113.82 639.479 3125.69 646.361C3137.57 653.108 3151.47 656.482 3167.39 656.482C3178.05 656.482 3187.7 654.998 3196.34 652.029C3204.97 648.925 3212.46 644.405 3218.81 638.467C3225.15 632.53 3229.94 625.175 3233.18 616.404L3301.59 624.096C3297.28 642.178 3289.04 657.966 3276.9 671.461C3264.89 684.82 3249.51 695.211 3230.75 702.633C3211.99 709.92 3190.54 713.563 3166.38 713.563Z" fill="#855DCD"/>
<path d="M2970.8 396.581V453.258H2792.07V396.581H2970.8ZM2836.19 322.093H2909.47V613.975C2909.47 623.826 2910.95 631.383 2913.92 636.645C2917.02 641.773 2921.07 645.282 2926.06 647.171C2931.06 649.06 2936.59 650.005 2942.66 650.005C2947.25 650.005 2951.43 649.667 2955.21 648.993C2959.13 648.318 2962.09 647.711 2964.12 647.171L2976.47 704.454C2972.55 705.804 2966.95 707.288 2959.66 708.907C2952.51 710.527 2943.74 711.471 2933.35 711.741C2915 712.281 2898.47 709.515 2883.76 703.442C2869.05 697.235 2857.38 687.654 2848.74 674.699C2840.24 661.745 2836.06 645.552 2836.19 626.12V322.093Z" fill="#855DCD"/>
<path d="M2748.45 478.762L2681.65 486.049C2679.76 479.302 2676.45 472.959 2671.73 467.022C2667.14 461.084 2660.93 456.294 2653.11 452.65C2645.28 449.007 2635.7 447.185 2624.36 447.185C2609.12 447.185 2596.3 450.491 2585.91 457.104C2575.65 463.716 2570.59 472.285 2570.72 482.81C2570.59 491.851 2573.9 499.206 2580.64 504.873C2587.53 510.541 2598.86 515.197 2614.65 518.84L2667.68 530.175C2697.1 536.518 2718.96 546.571 2733.26 560.335C2747.7 574.099 2754.99 592.114 2755.12 614.38C2754.99 633.947 2749.25 651.219 2737.92 666.198C2726.72 681.042 2711.13 692.647 2691.16 701.013C2671.19 709.38 2648.25 713.563 2622.34 713.563C2584.29 713.563 2553.65 705.601 2530.44 689.678C2507.23 673.62 2493.4 651.287 2488.95 622.679L2560.4 615.797C2563.64 629.831 2570.52 640.424 2581.05 647.576C2591.57 654.728 2605.27 658.304 2622.14 658.304C2639.55 658.304 2653.51 654.728 2664.04 647.576C2674.7 640.424 2680.03 631.585 2680.03 621.059C2680.03 612.153 2676.59 604.799 2669.71 598.996C2662.96 593.194 2652.43 588.741 2638.13 585.637L2585.1 574.504C2555.27 568.297 2533.21 557.839 2518.91 543.13C2504.6 528.286 2497.52 509.529 2497.65 486.858C2497.52 467.697 2502.71 451.099 2513.24 437.064C2523.9 422.895 2538.68 411.965 2557.57 404.273C2576.59 396.447 2598.52 392.533 2623.35 392.533C2659.79 392.533 2688.46 400.292 2709.38 415.811C2730.43 431.329 2743.45 452.313 2748.45 478.762Z" fill="#855DCD"/>
<path d="M2264.88 713.765C2245.17 713.765 2227.43 710.257 2211.64 703.24C2195.99 696.088 2183.57 685.562 2174.4 671.663C2165.36 657.764 2160.83 640.626 2160.83 620.25C2160.83 602.707 2164.07 588.201 2170.55 576.731C2177.03 565.26 2185.87 556.084 2197.07 549.202C2208.27 542.32 2220.88 537.125 2234.92 533.616C2249.09 529.973 2263.73 527.341 2278.84 525.722C2297.06 523.833 2311.84 522.146 2323.17 520.662C2334.51 519.042 2342.74 516.613 2347.87 513.375C2353.13 510.001 2355.76 504.806 2355.76 497.789V496.574C2355.76 481.326 2351.24 469.518 2342.2 461.152C2333.16 452.785 2320.14 448.602 2303.13 448.602C2285.19 448.602 2270.95 452.515 2260.42 460.342C2250.03 468.169 2243.02 477.412 2239.37 488.073L2170.96 478.357C2176.35 459.465 2185.26 443.677 2197.67 430.992C2210.09 418.172 2225.27 408.591 2243.22 402.249C2261.17 395.772 2281 392.533 2302.73 392.533C2317.71 392.533 2332.62 394.287 2347.46 397.796C2362.31 401.304 2375.87 407.107 2388.15 415.204C2400.43 423.165 2410.28 434.028 2417.7 447.792C2425.26 461.557 2429.03 478.762 2429.03 499.408V707.491H2358.59V664.781H2356.17C2351.71 673.417 2345.44 681.514 2337.34 689.071C2329.38 696.493 2319.33 702.498 2307.18 707.086C2295.17 711.539 2281.07 713.765 2264.88 713.765ZM2283.9 659.923C2298.61 659.923 2311.36 657.022 2322.16 651.219C2332.96 645.282 2341.25 637.455 2347.06 627.739C2352.99 618.023 2355.96 607.43 2355.96 595.96V559.323C2353.67 561.212 2349.76 562.966 2344.22 564.586C2338.82 566.205 2332.75 567.622 2326.01 568.836C2319.26 570.051 2312.58 571.13 2305.97 572.075C2299.35 573.02 2293.62 573.829 2288.76 574.504C2277.83 575.988 2268.05 578.417 2259.41 581.791C2250.77 585.165 2243.96 589.888 2238.97 595.96C2233.97 601.898 2231.48 609.589 2231.48 619.035C2231.48 632.53 2236.4 642.718 2246.25 649.6C2256.1 656.482 2268.65 659.923 2283.9 659.923Z" fill="#855DCD"/>
<path d="M1982.05 713.563C1951.02 713.563 1924.36 706.748 1902.1 693.119C1879.97 679.49 1862.9 660.665 1850.89 636.645C1839.01 612.491 1833.07 584.692 1833.07 553.251C1833.07 521.674 1839.15 493.808 1851.29 469.653C1863.44 445.363 1880.57 426.471 1902.71 412.977C1924.97 399.348 1951.28 392.533 1981.65 392.533C2006.88 392.533 2029.21 397.189 2048.65 406.5C2068.21 415.676 2083.8 428.698 2095.4 445.566C2107.01 462.299 2113.62 481.866 2115.24 504.266H2045.21C2042.37 489.287 2035.62 476.805 2024.96 466.819C2014.44 456.699 2000.34 451.638 1982.66 451.638C1967.68 451.638 1954.52 455.687 1943.19 463.783C1931.85 471.745 1923.01 483.215 1916.67 498.194C1910.46 513.172 1907.36 531.12 1907.36 552.036C1907.36 573.222 1910.46 591.439 1916.67 606.688C1922.88 621.802 1931.58 633.474 1942.78 641.706C1954.12 649.802 1967.41 653.851 1982.66 653.851C1993.45 653.851 2003.1 651.827 2011.6 647.778C2020.24 643.595 2027.46 637.59 2033.26 629.763C2039.07 621.937 2043.05 612.423 2045.21 601.223H2115.24C2113.49 623.219 2107.01 642.718 2095.81 659.721C2084.61 676.589 2069.36 689.813 2050.06 699.394C2030.77 708.84 2008.1 713.563 1982.05 713.563Z" fill="#855DCD"/>
<path d="M1633.24 707.49V396.581H1704.29V448.399H1707.53C1713.19 430.452 1722.91 416.62 1736.67 406.904C1750.57 397.054 1766.43 392.128 1784.24 392.128C1788.29 392.128 1792.81 392.331 1797.8 392.735C1802.93 393.005 1807.18 393.478 1810.56 394.152V461.556C1807.45 460.477 1802.53 459.532 1795.78 458.723C1789.17 457.778 1782.76 457.306 1776.55 457.306C1763.19 457.306 1751.18 460.207 1740.52 466.01C1729.99 471.677 1721.7 479.571 1715.62 489.692C1709.55 499.813 1706.51 511.485 1706.51 524.71V707.49H1633.24Z" fill="#855DCD"/>
<path d="M1395.4 713.765C1375.7 713.765 1357.96 710.257 1342.17 703.24C1326.52 696.088 1314.1 685.562 1304.92 671.663C1295.88 657.764 1291.36 640.626 1291.36 620.25C1291.36 602.707 1294.6 588.201 1301.08 576.731C1307.56 565.26 1316.39 556.084 1327.59 549.202C1338.79 542.32 1351.41 537.125 1365.45 533.616C1379.62 529.973 1394.26 527.341 1409.37 525.722C1427.59 523.833 1442.36 522.146 1453.7 520.662C1465.03 519.042 1473.27 516.613 1478.39 513.375C1483.66 510.001 1486.29 504.806 1486.29 497.789V496.574C1486.29 481.326 1481.77 469.518 1472.73 461.152C1463.68 452.785 1450.66 448.602 1433.66 448.602C1415.71 448.602 1401.48 452.515 1390.95 460.342C1380.56 468.169 1373.54 477.412 1369.9 488.073L1301.48 478.357C1306.88 459.465 1315.79 443.677 1328.2 430.992C1340.62 418.172 1355.8 408.591 1373.75 402.249C1391.69 395.772 1411.53 392.533 1433.26 392.533C1448.23 392.533 1463.14 394.287 1477.99 397.796C1492.83 401.304 1506.39 407.107 1518.67 415.204C1530.95 423.165 1540.8 434.028 1548.23 447.792C1555.78 461.557 1559.56 478.762 1559.56 499.408V707.491H1489.12V664.781H1486.69C1482.24 673.417 1475.96 681.514 1467.87 689.071C1459.91 696.493 1449.85 702.498 1437.71 707.086C1425.7 711.539 1411.6 713.765 1395.4 713.765ZM1414.43 659.923C1429.14 659.923 1441.89 657.022 1452.69 651.219C1463.48 645.282 1471.78 637.455 1477.58 627.739C1483.52 618.023 1486.49 607.43 1486.49 595.96V559.323C1484.2 561.212 1480.28 562.966 1474.75 564.586C1469.35 566.205 1463.28 567.622 1456.53 568.836C1449.79 570.051 1443.11 571.13 1436.49 572.075C1429.88 573.02 1424.15 573.829 1419.29 574.504C1408.36 575.988 1398.57 578.417 1389.94 581.791C1381.3 585.165 1374.49 589.888 1369.49 595.96C1364.5 601.898 1362.01 609.589 1362.01 619.035C1362.01 632.53 1366.93 642.718 1376.78 649.6C1386.63 656.482 1399.18 659.923 1414.43 659.923Z" fill="#855DCD"/>
<path d="M1259.13 396.581V453.258H1075.33V396.581H1259.13ZM1121.28 707.49V367.231C1121.28 346.315 1125.6 328.907 1134.24 315.008C1143.01 301.109 1154.75 290.718 1169.46 283.836C1184.17 276.954 1200.49 273.513 1218.44 273.513C1231.13 273.513 1242.39 274.525 1252.25 276.549C1262.1 278.574 1269.38 280.395 1274.11 282.015L1259.53 338.691C1256.43 337.746 1252.52 336.802 1247.79 335.857C1243.07 334.777 1237.81 334.238 1232 334.238C1218.37 334.238 1208.73 337.544 1203.06 344.156C1197.53 350.633 1194.76 359.944 1194.76 372.089V707.49H1121.28Z" fill="#855DCD"/>
</svg>
